<svg width="0" height="0" class="hidden">
   <symbol version="1.1" id="sahem-svg-logo" xmlns="http://www.w3.org/2000/svg" xmlns:xlink="http://www.w3.org/1999/xlink"
    x="0px" y="0px" xml:space="preserve" viewBox="0 0 1000 1000">
	
	<g>
      <path fill="#444443" d="M236.3,621.1c-27.1,0-46.3-10-58-18.7c-25.1-18.8-33.8-45.1-36.7-59.4c-0.6-2.9-0.2-5.9,1.4-8.4
		c2.1-3.3,5.6-5.2,9.4-5.2h5.8c4.2,3.7,1.6,8.4-2,8.4h-3.8c-1.1,0-1.8,0.6-2.1,1c-0.3,0.4-0.8,1.1-0.5,2.2
		c2.6,13,10.5,37.5,33.6,54.8c11.5,8.6,31.2,18.5,59.3,16.9c37.5-2.2,81.3-28.8,92.7-75.3c10-40.7-7.1-83.6-42.5-106.8
		c-1.7-1.1-2.5-3.3-1.8-5.2c1-2.5,4-3.4,6.2-2c38.5,25.2,57.1,71.8,46.2,116c-12.9,52.8-61.1,79.4-100.4,81.7
		C240.8,621,238.5,621.1,236.3,621.1"/>
	<path fill="#444443" d="M321.3,527.8c-2.3,0-4.2-1.9-4.2-4.2v-13.6c0-2.3,1.9-4.2,4.2-4.2c2.3,0,4.2,1.9,4.2,4.2v13.6
		C325.5,525.9,323.6,527.8,321.3,527.8"/>
	<path fill="#444443" d="M299.6,532.4c-2.3,0-4.2-1.9-4.2-4.2v-13.2c0-2.3,1.9-4.2,4.2-4.2s4.2,1.9,4.2,4.2v13.2
		C303.8,530.5,301.9,532.4,299.6,532.4"/>
	<path fill="#444443" d="M279.3,534c-2.3,0-4.2-1.9-4.2-4.2v-14.9c0-2.3,1.9-4.2,4.2-4.2c2.3,0,4.2,1.9,4.2,4.2v14.9
		C283.5,532.2,281.6,534,279.3,534"/>
	<path fill="#444443" d="M310.4,538.6c-8.3,0-15-6.7-15-15v-1.9c0-2.3,1.9-4.2,4.2-4.2c2.3,0,4.2,1.9,4.2,4.2v1.9c0,3.7,3,6.6,6.6,6.6
		c3.7,0,6.6-3,6.6-6.6v-1.9c0-2.3,1.9-4.2,4.2-4.2c2.3,0,4.2,1.9,4.2,4.2v1.9C325.5,531.9,318.7,538.6,310.4,538.6"/>
	<path fill="#444443" d="M286.9,538.6h-46.2V416.2c0-2.3,1.9-4.2,4.2-4.2c2.3,0,4.2,1.9,4.2,4.2v114h37.8c4.7,0,8.5-3.8,8.5-8.5
		c0-2.3,1.9-4.2,4.2-4.2c2.3,0,4.2,1.9,4.2,4.2C303.8,531,296.2,538.6,286.9,538.6"/>
	<path fill="#444443" d="M226.8,538.6h-42.4c-2.3,0-4.2-1.9-4.2-4.2c0-2.3,1.9-4.2,4.2-4.2h42.4c2.3,0,4.2,1.9,4.2,4.2
		C231,536.7,229.1,538.6,226.8,538.6"/>
	<path fill="#444443" d="M227.1,538.4c-0.7,0-1.5-0.2-2.2-0.6c-1.8-1.1-2.4-3.5-1.5-5.5c2.9-7,1.1-15-4.4-19.7c-5-4.2-12.2-5-18.3-2.1
		c-2.2,1.1-4.9,0-5.7-2.3c-0.8-2.1,0.4-4.4,2.4-5.4c9-4.2,19.6-2.9,27,3.4c8.5,7.1,11.2,19.4,6.6,29.7
		C230.3,537.5,228.8,538.4,227.1,538.4"/>
	<path fill="#444443" d="M215.6,538.6c-2.3,0-4.2-1.9-4.2-4.2v-8.2c0-2.2-1.8-4-4-4c-2.2,0-4,1.8-4,4v8.2c0,2.3-1.9,4.2-4.2,4.2
		c-2.3,0-4.2-1.9-4.2-4.2v-8.2c0-6.8,5.6-12.4,12.4-12.4c6.8,0,12.4,5.6,12.4,12.4v8.2C219.7,536.7,217.9,538.6,215.6,538.6"/>
	<path fill="#444443" d="M169.6,546.5c-8.8,0-16-7.5-16-16.8s7.2-16.8,16-16.8c8.8,0,16,7.5,16,16.8S178.5,546.5,169.6,546.5
		 M169.6,521.3c-4.2,0-7.7,3.8-7.7,8.4c0,4.6,3.4,8.4,7.7,8.4c4.2,0,7.7-3.8,7.7-8.4C177.3,525.1,173.8,521.3,169.6,521.3"/>
	<path fill="#006937" d="M284.3,437.2c3.8,17.2-9,31.1-26.4,28.6C254,448.5,266.9,434.7,284.3,437.2"/>
	<path fill="#006937" d="M207.5,458.2c17.4-2,30,12.1,25.8,29.2C215.8,489.5,203.4,475.3,207.5,458.2"/>
	<path fill="#006937" d="M278.8,401.3c3.9,14.2-6.2,26.3-20.9,24.7C253.8,411.7,264.1,399.7,278.8,401.3"/>
	<path fill="#006937" d="M214.6,425.5c11.9-2.1,21.1,7.2,18.7,19.1C221.4,446.7,212.3,437.4,214.6,425.5"/>
	<path fill="#A29160" d="M245.1,378.9c10,6.6,10,19.4,0,26C235.1,398.3,235.1,385.6,245.1,378.9"/>
	<path fill="#006938" d="M467.3,492.9H457c-3.4,5-9,7.8-15.9,7.8h-0.1c-10.8,0-18.3-6.9-19.7-17.6c-6.7,0.5-10.1,5.5-10.1,13.4v9.4h-7
		v-10.5c0-12.1,6.2-19,17.1-19.4c1.2-11.1,8.8-18.2,19.7-18.2h0.1c11.8,0,19.7,8.6,19.7,21.6v0.1c0,2.2-0.2,4.4-0.7,6.3h7.2V492.9z
		 M453.8,479.4c0-8.6-5-14.4-12.6-14.4h-0.1c-7.7,0-12.8,5.8-12.8,14.4v0.1c0,8.5,5.1,14.2,12.8,14.2h0.1
		C448.8,493.7,453.8,487.9,453.8,479.4L453.8,479.4z"/>
	<path fill="none" stroke="#006938" stroke-width="0.43" stroke-miterlimit="10" d="M467.3,492.9H457c-3.4,5-9,7.8-15.9,7.8h-0.1c-10.8,0-18.3-6.9-19.7-17.6c-6.7,0.5-10.1,5.5-10.1,13.4v9.4h-7
		v-10.5c0-12.1,6.2-19,17.1-19.4c1.2-11.1,8.8-18.2,19.7-18.2h0.1c11.8,0,19.7,8.6,19.7,21.6v0.1c0,2.2-0.2,4.4-0.7,6.3h7.2V492.9z
		 M453.8,479.4c0-8.6-5-14.4-12.6-14.4h-0.1c-7.7,0-12.8,5.8-12.8,14.4v0.1c0,8.5,5.1,14.2,12.8,14.2h0.1
		C448.8,493.7,453.8,487.9,453.8,479.4L453.8,479.4z"/>
	<rect x="465.9" y="485.9" fill="#006938" width="13.3" height="7"/>
	<rect x="465.9" y="485.9" fill="none" stroke="#006938" stroke-width="0.43" stroke-miterlimit="10" width="13.3" height="7"/>
	<path fill="#006938" d="M532.1,474.5c0,4.3-0.7,10.9-2.1,18.5h-52.3v-7h8.8c-0.5-2.5-0.8-5.5-0.8-7.8c0-10.1,6.4-16.7,15.4-16.7
		c9,0,15.4,6.6,15.4,16.5c0,2.4-0.4,5.5-0.9,8h8.4c0.6-4.3,0.9-7.8,0.9-10.9c0-15-9-22.8-22.1-22.8c-5.9,0-11,1.4-16.5,4.5l-2.5-6.3
		c6.9-3.5,13.6-5.2,20.1-5.2C520.1,445.1,532.1,455.5,532.1,474.5 M493.5,485.9h15.2c0.4-2,0.7-4.5,0.7-7c0-6.2-3.4-10.5-8.5-10.5
		c-5,0-8.2,4.2-8.2,10.5C492.8,481.3,493.1,483.8,493.5,485.9"/>
	<path fill="none" stroke="#006938" stroke-width="0.43" stroke-miterlimit="10" d="M532.1,474.5c0,4.3-0.7,10.9-2.1,18.5h-52.3v-7h8.8c-0.5-2.5-0.8-5.5-0.8-7.8c0-10.1,6.4-16.7,15.4-16.7
		c9,0,15.4,6.6,15.4,16.5c0,2.4-0.4,5.5-0.9,8h8.4c0.6-4.3,0.9-7.8,0.9-10.9c0-15-9-22.8-22.1-22.8c-5.9,0-11,1.4-16.5,4.5l-2.5-6.3
		c6.9-3.5,13.6-5.2,20.1-5.2C520.1,445.1,532.1,455.5,532.1,474.5z M493.5,485.9h15.2c0.4-2,0.7-4.5,0.7-7c0-6.2-3.4-10.5-8.5-10.5
		c-5,0-8.2,4.2-8.2,10.5C492.8,481.3,493.1,483.8,493.5,485.9z"/>
	<polygon fill="#006938" points="561.8,485.9 561.8,492.9 542.2,492.9 542.2,434.7 549.2,434.7 549.2,485.9 	"/>
	<polygon fill="none" stroke="#006938" stroke-width="0.43" stroke-miterlimit="10" points="561.8,485.9 561.8,492.9 542.2,492.9 542.2,434.7 549.2,434.7 549.2,485.9 	"/>
	<rect x="560" y="485.9" fill="#006938" width="0.4" height="7"/>
	<rect x="560" y="485.9" fill="none" stroke="#006938" stroke-width="0.43" stroke-miterlimit="10" width="0.4" height="7"/>
	<rect x="558.5" y="485.9" fill="#006938" width="13.3" height="7"/>
	<rect x="558.5" y="485.9" fill="none" stroke="#006938" stroke-width="0.43" stroke-miterlimit="10" width="13.3" height="7"/>
	<path fill="#006938" d="M654.5,452.5v22.2c0,12.6-5.9,19-17.9,19c-7,0-12.8-3.3-14.7-8.8c-2.4,5.2-7.3,8.1-14.2,8.1h-37.4v-7h23.1v-28
		h7v28h7.2c5.9,0,11.3-3.3,11.3-10.8v-17.2h7V476c0,6.5,4.2,10.6,10.7,10.6c6.8,0,10.8-3.7,10.8-11.2v-22.8H654.5z"/>
	<path fill="none" stroke="#006938" stroke-width="0.43" stroke-miterlimit="10" d="M654.5,452.5v22.2c0,12.6-5.9,19-17.9,19c-7,0-12.8-3.3-14.7-8.8c-2.4,5.2-7.3,8.1-14.2,8.1h-37.4v-7h23.1v-28
		h7v28h7.2c5.9,0,11.3-3.3,11.3-10.8v-17.2h7V476c0,6.5,4.2,10.6,10.7,10.6c6.8,0,10.8-3.7,10.8-11.2v-22.8H654.5z"/>
	<path fill="#006938" d="M732.3,485.9v7h-30.5h-4.3c-13.2,0-22-7.9-22-19.8V473c0-12.1,9.1-20,23-20h3.4v-3.6h7v36.5H732.3z M701.8,460
		H697c-8.8,0-14.9,5-14.9,13.1v0.1c0,7.8,6.2,12.8,14.9,12.8h4.8V460z M685.9,439c0-2.7,2.2-4.7,5-4.7c2.9,0,5,1.9,5,4.7
		c0,2.9-2.3,4.7-5,4.7C688.3,443.7,685.9,442,685.9,439 M699.2,439c0-2.7,2.2-4.7,5-4.7c2.9,0,5,1.9,5,4.7c0,2.9-2.3,4.7-5,4.7
		C701.6,443.7,699.2,442,699.2,439"/>
	<path fill="none" stroke="#006938" stroke-width="0.43" stroke-miterlimit="10" d="M732.3,485.9v7h-30.5h-4.3c-13.2,0-22-7.9-22-19.8V473c0-12.1,9.1-20,23-20h3.4v-3.6h7v36.5H732.3z M701.8,460
		H697c-8.8,0-14.9,5-14.9,13.1v0.1c0,7.8,6.2,12.8,14.9,12.8h4.8V460z M685.9,439c0-2.7,2.2-4.7,5-4.7c2.9,0,5,1.9,5,4.7
		c0,2.9-2.3,4.7-5,4.7C688.3,443.7,685.9,442,685.9,439z M699.2,439c0-2.7,2.2-4.7,5-4.7c2.9,0,5,1.9,5,4.7c0,2.9-2.3,4.7-5,4.7
		C701.6,443.7,699.2,442,699.2,439z"/>
	<path fill="#006938" d="M792.7,485.9v7h-61.8v-7h7.3v-36.8h7v3.9h17.7c13.8,0,21.2,7.1,21.1,20.1l-0.1,12.8H792.7z M763.5,460h-18.2
		v25.8h31.7V472C777,463.6,771.6,460,763.5,460"/>
	<path fill="none" stroke="#006938" stroke-width="0.43" stroke-miterlimit="10" d="M792.7,485.9v7h-61.8v-7h7.3v-36.8h7v3.9h17.7c13.8,0,21.2,7.1,21.1,20.1l-0.1,12.8H792.7z M763.5,460h-18.2
		v25.8h31.7V472C777,463.6,771.6,460,763.5,460z"/>
	<path fill="#006938" d="M814.4,485.9v7h-23.1v-7h7.3V453h7v32.9H814.4z M797.1,439.9c0-2.8,2.2-4.7,5.1-4.7c2.7,0,5,1.9,5,4.7
		c0,3-2.4,4.7-5,4.7C799.4,444.6,797.1,443,797.1,439.9"/>
	<path fill="none" stroke="#006938" stroke-width="0.43" stroke-miterlimit="10" d="M814.4,485.9v7h-23.1v-7h7.3V453h7v32.9H814.4z M797.1,439.9c0-2.8,2.2-4.7,5.1-4.7c2.7,0,5,1.9,5,4.7
		c0,3-2.4,4.7-5,4.7C799.4,444.6,797.1,443,797.1,439.9z"/>
	<path fill="#006938" d="M858.6,479.5L858.6,479.5c0,12.7-7.9,21.3-19.7,21.3h-0.1c-7,0-12.6-2.9-16-7.8h-9.9v-7h6.7
		c-0.5-1.9-0.7-4.1-0.7-6.3v-0.1c0-13,8-21.6,19.9-21.6h0.1C850.7,457.9,858.6,466.5,858.6,479.5 M851.6,479.4
		c0-8.6-5-14.4-12.6-14.4h-0.1c-7.7,0-12.8,5.8-12.8,14.4v0.1c0,8.5,5.1,14.2,12.8,14.2h0.1C846.5,493.7,851.6,487.9,851.6,479.4
		L851.6,479.4z"/>
	<path fill="none" stroke="#006938" stroke-width="0.43" stroke-miterlimit="10" d="M858.6,479.5L858.6,479.5c0,12.7-7.9,21.3-19.7,21.3h-0.1c-7,0-12.6-2.9-16-7.8h-9.9v-7h6.7
		c-0.5-1.9-0.7-4.1-0.7-6.3v-0.1c0-13,8-21.6,19.9-21.6h0.1C850.7,457.9,858.6,466.5,858.6,479.5z M851.6,479.4
		c0-8.6-5-14.4-12.6-14.4h-0.1c-7.7,0-12.8,5.8-12.8,14.4v0.1c0,8.5,5.1,14.2,12.8,14.2h0.1C846.5,493.7,851.6,487.9,851.6,479.4
		L851.6,479.4z"/>
	<path fill="#006938" d="M404.3,561.5l2.1-4.5c3.4,2.4,7.9,3.8,12.4,3.8c6.8,0,10.8-3.1,10.8-7.7V553c0-3.9-2.6-5.8-9.6-8
		c-1.2-0.4-2.4-0.7-3.7-1.1c-7.7-2.3-11-5.9-11-12.3v-0.1c0-6.7,5.4-11.3,14.5-11.3c5.2,0,10.4,1.4,14.1,3.8l-2.1,4.5
		c-3.3-2.2-7.7-3.5-12-3.5c-6.1,0-9.1,2.7-9.1,6.4v0.1c0,4.4,2.6,6,7.6,7.7l3.8,1.1c9.2,2.7,12.9,6.5,12.9,12.7v0.1
		c-0.1,7.8-6.2,12.6-16.1,12.6C413.6,565.7,408.2,564.2,404.3,561.5"/>
	<path fill="none" stroke="#006938" stroke-width="0.43" stroke-miterlimit="10" d="M404.3,561.5l2.1-4.5c3.4,2.4,7.9,3.8,12.4,3.8c6.8,0,10.8-3.1,10.8-7.7V553c0-3.9-2.6-5.8-9.6-8
		c-1.2-0.4-2.4-0.7-3.7-1.1c-7.7-2.3-11-5.9-11-12.3v-0.1c0-6.7,5.4-11.3,14.5-11.3c5.2,0,10.4,1.4,14.1,3.8l-2.1,4.5
		c-3.3-2.2-7.7-3.5-12-3.5c-6.1,0-9.1,2.7-9.1,6.4v0.1c0,4.4,2.6,6,7.6,7.7l3.8,1.1c9.2,2.7,12.9,6.5,12.9,12.7v0.1
		c-0.1,7.8-6.2,12.6-16.1,12.6C413.6,565.7,408.2,564.2,404.3,561.5z"/>
	<path fill="#006938" d="M468.1,545.3v18.2c-2.9,0.9-8,2.1-12.7,2.1c-9.1,0-14.3-3.6-14.3-10.1v-0.1c0-6.4,4.9-10.1,13.8-10.1
		c2.2,0,5,0.3,7.9,0.7v-0.6c0-4.2-2.8-6.8-9.2-6.8c-3,0-7,0.7-10.3,2.1l1.1-4.9c2.6-1.2,6.6-2,10.4-2
		C463.1,533.7,468.1,537.4,468.1,545.3 M455.5,560.6c2.1,0,5.1-0.4,7.3-0.9v-8.8c-1.1-0.2-4.8-0.7-7.3-0.7c-6,0-8.9,1.7-8.9,5.2
		C446.6,558.9,449.5,560.6,455.5,560.6"/>
	<path fill="none" stroke="#006938" stroke-width="0.43" stroke-miterlimit="10" d="M468.1,545.3v18.2c-2.9,0.9-8,2.1-12.7,2.1c-9.1,0-14.3-3.6-14.3-10.1v-0.1c0-6.4,4.9-10.1,13.8-10.1
		c2.2,0,5,0.3,7.9,0.7v-0.6c0-4.2-2.8-6.8-9.2-6.8c-3,0-7,0.7-10.3,2.1l1.1-4.9c2.6-1.2,6.6-2,10.4-2
		C463.1,533.7,468.1,537.4,468.1,545.3z M455.5,560.6c2.1,0,5.1-0.4,7.3-0.9v-8.8c-1.1-0.2-4.8-0.7-7.3-0.7c-6,0-8.9,1.7-8.9,5.2
		C446.6,558.9,449.5,560.6,455.5,560.6z"/>
	<path fill="#006938" d="M498.8,565v-18.7c0-5.3-3-7.1-8-7.1c-2.1,0-4.9,0.3-7.7,0.8v25h-5.4v-44.1h5.4v13.7c3.1-0.4,6-0.7,8-0.7
		c7.3,0,13.1,2.7,13.1,11.3c0,6.6,0.1,13.2,0.1,19.7H498.8z"/>
	<path fill="none" stroke="#006938" stroke-width="0.43" stroke-miterlimit="10" d="M498.8,565v-18.7c0-5.3-3-7.1-8-7.1c-2.1,0-4.9,0.3-7.7,0.8v25h-5.4v-44.1h5.4v13.7c3.1-0.4,6-0.7,8-0.7
		c7.3,0,13.1,2.7,13.1,11.3c0,6.6,0.1,13.2,0.1,19.7H498.8z"/>
	<path fill="#006938" d="M541.4,551.5h-24.7c0.8,5.8,4.7,9.4,10.8,9.4c4,0,7.3-0.9,9.8-2.3l2.3,4.2c-3.2,1.7-7.2,2.9-12.4,2.9
		c-9.6,0-15.9-6.4-15.9-15.9c0-9.6,6.3-16,15.5-16c8.8,0,14.6,6,14.6,15.1C541.5,549.5,541.5,550.9,541.4,551.5 M516.9,546.9h19.4
		c-0.3-5.2-3.9-8.4-9.5-8.4C521.2,538.5,517.7,541.6,516.9,546.9"/>
	<path fill="none" stroke="#006938" stroke-width="0.43" stroke-miterlimit="10" d="M541.4,551.5h-24.7c0.8,5.8,4.7,9.4,10.8,9.4c4,0,7.3-0.9,9.8-2.3l2.3,4.2c-3.2,1.7-7.2,2.9-12.4,2.9
		c-9.6,0-15.9-6.4-15.9-15.9c0-9.6,6.3-16,15.5-16c8.8,0,14.6,6,14.6,15.1C541.5,549.5,541.5,550.9,541.4,551.5z M516.9,546.9h19.4
		c-0.3-5.2-3.9-8.4-9.5-8.4C521.2,538.5,517.7,541.6,516.9,546.9z"/>
	<path fill="#006938" d="M592.3,565h-5.4c0-6.3-0.1-12.4-0.1-18.6c0-4.4-1.5-7.1-7.3-7.1c-2.1,0-4.9,0.8-6.8,2.1
		c0.4,1.3,0.6,2.8,0.6,4.4c0,6.6,0.1,12.8,0.1,19.3h-5.4c0-6.3-0.1-12.4-0.1-18.6c0-5.3-3-7.1-7.6-7.1c-1.9,0-4,0.3-6.4,0.8v25h-5.4
		v-29.6c5.2-1,9.6-1.5,12.1-1.5c3.8,0,7,0.9,9.2,2.8c2.8-1.7,6.2-2.8,9.9-2.8c8,0,12.5,3.4,12.5,11.4
		C592.3,551.9,592.3,558.5,592.3,565"/>
	<path fill="none" stroke="#006938" stroke-width="0.43" stroke-miterlimit="10" d="M592.3,565h-5.4c0-6.3-0.1-12.4-0.1-18.6c0-4.4-1.5-7.1-7.3-7.1c-2.1,0-4.9,0.8-6.8,2.1
		c0.4,1.3,0.6,2.8,0.6,4.4c0,6.6,0.1,12.8,0.1,19.3h-5.4c0-6.3-0.1-12.4-0.1-18.6c0-5.3-3-7.1-7.6-7.1c-1.9,0-4,0.3-6.4,0.8v25h-5.4
		v-29.6c5.2-1,9.6-1.5,12.1-1.5c3.8,0,7,0.9,9.2,2.8c2.8-1.7,6.2-2.8,9.9-2.8c8,0,12.5,3.4,12.5,11.4
		C592.3,551.9,592.3,558.5,592.3,565z"/>
	<path fill="#006938" d="M643.2,534.1L643.2,534.1c-0.1,8.8-5.5,13.9-15.4,13.9h-9.6v17h-5.3v-44.1h14.8
		C639,520.9,643.2,526.8,643.2,534.1 M637.8,534.3c0-6.1-3.9-8.4-10.3-8.4h-9.3V543h9.3C634.9,543,637.8,539.7,637.8,534.3
		L637.8,534.3z"/>
	<path fill="none" stroke="#006938" stroke-width="0.43" stroke-miterlimit="10" d="M643.2,534.1L643.2,534.1c-0.1,8.8-5.5,13.9-15.4,13.9h-9.6v17h-5.3v-44.1h14.8
		C639,520.9,643.2,526.8,643.2,534.1z M637.8,534.3c0-6.1-3.9-8.4-10.3-8.4h-9.3V543h9.3C634.9,543,637.8,539.7,637.8,534.3
		L637.8,534.3z"/>
	<rect x="650.8" y="520.9" fill="#006938" width="5.4" height="44.1"/>
	<rect x="650.8" y="520.9" fill="none" stroke="#006938" stroke-width="0.43" stroke-miterlimit="10" width="5.4" height="44.1"/>
	<path fill="#006938" d="M690.1,545.3v18.2c-2.9,0.9-8,2.1-12.7,2.1c-9.1,0-14.3-3.6-14.3-10.1v-0.1c0-6.4,4.9-10.1,13.8-10.1
		c2.2,0,5,0.3,7.9,0.7v-0.6c0-4.2-2.8-6.8-9.2-6.8c-3,0-7,0.7-10.3,2.1l1.1-4.9c2.6-1.2,6.6-2,10.4-2
		C685.1,533.7,690.1,537.4,690.1,545.3 M677.5,560.6c2.1,0,5.1-0.4,7.3-0.9v-8.8c-1.1-0.2-4.8-0.7-7.3-0.7c-6,0-8.9,1.7-8.9,5.2
		C668.6,558.9,671.5,560.6,677.5,560.6"/>
	<path fill="none" stroke="#006938" stroke-width="0.43" stroke-miterlimit="10" d="M690.1,545.3v18.2c-2.9,0.9-8,2.1-12.7,2.1c-9.1,0-14.3-3.6-14.3-10.1v-0.1c0-6.4,4.9-10.1,13.8-10.1
		c2.2,0,5,0.3,7.9,0.7v-0.6c0-4.2-2.8-6.8-9.2-6.8c-3,0-7,0.7-10.3,2.1l1.1-4.9c2.6-1.2,6.6-2,10.4-2
		C685.1,533.7,690.1,537.4,690.1,545.3z M677.5,560.6c2.1,0,5.1-0.4,7.3-0.9v-8.8c-1.1-0.2-4.8-0.7-7.3-0.7c-6,0-8.9,1.7-8.9,5.2
		C668.6,558.9,671.5,560.6,677.5,560.6z"/>
	<path fill="#006938" d="M702.3,555.5v-15.8h-5.8v-4.9h5.8v-11h5.3v11h11.9v4.9h-11.9v14.2c0,4.8,2.3,6.2,6.9,6.2h5.1v4.9h-6.9
		C704.8,565,702.3,561.9,702.3,555.5"/>
	<path fill="none" stroke="#006938" stroke-width="0.43" stroke-miterlimit="10" d="M702.3,555.5v-15.8h-5.8v-4.9h5.8v-11h5.3v11h11.9v4.9h-11.9v14.2c0,4.8,2.3,6.2,6.9,6.2h5.1v4.9h-6.9
		C704.8,565,702.3,561.9,702.3,555.5z"/>
	<path fill="#006938" d="M728.9,539.8H723v-5h5.9v-4c0-7.8,3.8-9.9,11.9-9.9h5.6v4.6h-5.1c-4.7,0-7,1.5-7,6.3v3h12v5h-12V565h-5.4
		V539.8z"/>
	<path fill="none" stroke="#006938" stroke-width="0.43" stroke-miterlimit="10" d="M728.9,539.8H723v-5h5.9v-4c0-7.8,3.8-9.9,11.9-9.9h5.6v4.6h-5.1c-4.7,0-7,1.5-7,6.3v3h12v5h-12V565h-5.4
		V539.8z"/>
	<path fill="#006938" d="M750.2,549.8L750.2,549.8c0-9.2,7-16.1,16.2-16.1h0.1c9.2,0.1,16.3,6.9,16.3,16v0.1c0,9.1-7,15.8-16.3,15.8
		h-0.1C757.2,565.7,750.3,558.9,750.2,549.8 M766.5,560.7c6.4,0,10.8-4.8,10.8-10.8v-0.1c0-6.1-4.4-10.9-10.8-11h-0.1
		c-6.4,0-10.8,4.9-10.8,11v0.1C755.7,555.8,760.1,560.7,766.5,560.7L766.5,560.7z"/>
	<path fill="none" stroke="#006938" stroke-width="0.43" stroke-miterlimit="10" d="M750.2,549.8L750.2,549.8c0-9.2,7-16.1,16.2-16.1h0.1c9.2,0.1,16.3,6.9,16.3,16v0.1c0,9.1-7,15.8-16.3,15.8
		h-0.1C757.2,565.7,750.3,558.9,750.2,549.8z M766.5,560.7c6.4,0,10.8-4.8,10.8-10.8v-0.1c0-6.1-4.4-10.9-10.8-11h-0.1
		c-6.4,0-10.8,4.9-10.8,11v0.1C755.7,555.8,760.1,560.7,766.5,560.7L766.5,560.7z"/>
	<path fill="#006938" d="M789,536.3c4-1.2,8-1.6,11.2-1.6h5.3v5.1c-2,0-2.6-0.1-4.7-0.1c-1.8,0-5.1,0.2-6.5,0.8V565H789V536.3z"/>
	<path fill="none" stroke="#006938" stroke-width="0.43" stroke-miterlimit="10" d="M789,536.3c4-1.2,8-1.6,11.2-1.6h5.3v5.1c-2,0-2.6-0.1-4.7-0.1c-1.8,0-5.1,0.2-6.5,0.8V565H789V536.3z"/>
	<path fill="#006938" d="M856.4,565h-5.4c0-6.3-0.1-12.4-0.1-18.6c0-4.4-1.5-7.1-7.3-7.1c-2.1,0-4.9,0.8-6.9,2.1
		c0.4,1.3,0.6,2.8,0.6,4.4c0,6.6,0.1,12.8,0.1,19.3H832c0-6.3-0.1-12.4-0.1-18.6c0-5.3-3-7.1-7.6-7.1c-1.9,0-4,0.3-6.4,0.8v25h-5.4
		v-29.6c5.2-1,9.6-1.5,12.1-1.5c3.8,0,7,0.9,9.2,2.8c2.8-1.7,6.2-2.8,9.9-2.8c8,0,12.5,3.4,12.5,11.4
		C856.3,551.9,856.4,558.5,856.4,565"/>
	<path fill="none" stroke="#006938" stroke-width="0.43" stroke-miterlimit="10" d="M856.4,565h-5.4c0-6.3-0.1-12.4-0.1-18.6c0-4.4-1.5-7.1-7.3-7.1c-2.1,0-4.9,0.8-6.9,2.1
		c0.4,1.3,0.6,2.8,0.6,4.4c0,6.6,0.1,12.8,0.1,19.3H832c0-6.3-0.1-12.4-0.1-18.6c0-5.3-3-7.1-7.6-7.1c-1.9,0-4,0.3-6.4,0.8v25h-5.4
		v-29.6c5.2-1,9.6-1.5,12.1-1.5c3.8,0,7,0.9,9.2,2.8c2.8-1.7,6.2-2.8,9.9-2.8c8,0,12.5,3.4,12.5,11.4
		C856.3,551.9,856.4,558.5,856.4,565z"/>
    </g>
  </symbol>
</svg>